HIERARCHY
ROOT Hips
{
 OFFSET 0.000000 0.000000 0.000000
 CHANNELS 6 Xposition Yposition Zposition Yrotation Xrotation Zrotation
 JOINT Chest
 {
  OFFSET 0.000000 9.585900 0.002600
  CHANNELS 3 Yrotation Xrotation Zrotation
  JOINT Chest2
  {
   OFFSET 0.000000 9.601200 -0.005300
   CHANNELS 3 Yrotation Xrotation Zrotation
   JOINT Chest3
   {
    OFFSET 0.000000 9.561800 0.000000
    CHANNELS 3 Yrotation Xrotation Zrotation
    JOINT Chest4
    {
     OFFSET 0.000000 9.552100 0.000000
     CHANNELS 3 Yrotation Xrotation Zrotation
     JOINT Neck
     {
      OFFSET 0.000000 14.453000 0.000000
      CHANNELS 3 Yrotation Xrotation Zrotation
      JOINT Head
      {
       OFFSET 0.000000 8.936500 -0.011300
       CHANNELS 3 Yrotation Xrotation Zrotation
       End Site
       {
        OFFSET 0.000000 17.073600 -0.006000
       }
      }
     }
     JOINT RightCollar
     {
      OFFSET -2.921100 9.558500 0.000000
      CHANNELS 3 Yrotation Xrotation Zrotation
      JOINT RightShoulder
      {
       OFFSET -13.519700 0.000000 0.000000
       CHANNELS 3 Yrotation Xrotation Zrotation
       JOINT RightElbow
       {
        OFFSET 0.000000 -29.696600 0.000000
        CHANNELS 3 Yrotation Xrotation Zrotation
        JOINT RightWrist
        {
         OFFSET 0.000000 -24.004700 0.000000
         CHANNELS 3 Yrotation Xrotation Zrotation
         End Site
         {
          OFFSET 0.000000 -17.728500 0.000000
         }
        }
       }
      }
     }
     JOINT LeftCollar
     {
      OFFSET 2.921100 9.558500 0.000000
      CHANNELS 3 Yrotation Xrotation Zrotation
      JOINT LeftShoulder
      {
       OFFSET 13.519700 0.000000 0.000000
       CHANNELS 3 Yrotation Xrotation Zrotation
       JOINT LeftElbow
       {
        OFFSET 0.000000 -29.696600 0.000000
        CHANNELS 3 Yrotation Xrotation Zrotation
        JOINT LeftWrist
        {
         OFFSET 0.000000 -24.004700 0.000000
         CHANNELS 3 Yrotation Xrotation Zrotation
         End Site
         {
          OFFSET 0.000000 -17.728500 0.000000
         }
        }
       }
      }
     }
    }
   }
  }
 }
 JOINT RightHip
 {
  OFFSET -7.771700 -0.012900 -0.001300
  CHANNELS 3 Yrotation Xrotation Zrotation
  JOINT RightKnee
  {
   OFFSET 0.000000 -40.869800 0.001200
   CHANNELS 3 Yrotation Xrotation Zrotation
   JOINT RightAnkle
   {
    OFFSET 0.000000 -39.717900 0.002100
    CHANNELS 3 Yrotation Xrotation Zrotation
    JOINT RightToe
    {
     OFFSET 0.000000 -4.965400 11.033500
     CHANNELS 3 Yrotation Xrotation Zrotation
     End Site
     {
      OFFSET 0.000000 -1.423100 5.872300
     }
    }
   }
  }
 }
 JOINT LeftHip
 {
  OFFSET 7.771700 -0.012900 -0.001300
  CHANNELS 3 Yrotation Xrotation Zrotation
  JOINT LeftKnee
  {
   OFFSET 0.000000 -40.869800 0.001200
   CHANNELS 3 Yrotation Xrotation Zrotation
   JOINT LeftAnkle
   {
    OFFSET 0.000000 -39.717900 0.002100
    CHANNELS 3 Yrotation Xrotation Zrotation
    JOINT LeftToe
    {
     OFFSET 0.000000 -4.965400 11.033500
     CHANNELS 3 Yrotation Xrotation Zrotation
     End Site
     {
      OFFSET 0.000000 -1.423100 5.872300
     }
    }
   }
  }
 }
}
MOTION
Frames: 11
Frame Time: 0.008333
0.000000 85.388000 0.000000 0.000000 -5.767877 0.000000 0.000000 11.653817 0.000000 0.000000 -5.885947 0.000000 0.000000 -0.000000 0.000000 0.000000 -0.000000 0.000000 0.000000 12.528835 0.000000 0.000000 0.711642 0.000000 0.000000 -0.000000 0.000000 0.000000 0.000000 -90.000000 0.000000 -2.309062 0.000000 0.000000 2.309062 0.000000 0.000000 -0.000000 0.000000 0.000000 -0.000000 90.000000 0.000000 -2.309062 0.000000 0.000000 2.309062 0.000000 0.000000 8.520406 0.000000 0.000000 1.905762 0.000000 -0.000000 -4.658285 0.000000 0.000000 -0.000000 0.000000 0.000000 8.520406 0.000000 0.000000 1.905762 0.000000 -0.000000 -4.658285 0.000000 0.000000 -0.000000 0.000000
-7.996017 55.296152 -25.968228 179.688283 -17.248352 -1.500652 1.098099 15.612911 0.772895 0.103347 1.485513 0.078615 0.163350 2.503585 0.122802 0.991079 13.880318 0.785077 6.981455 16.450022 -1.256272 7.863377 -8.184494 -2.984521 0.359101 2.265961 2.468318 3.048949 -7.685056 -8.636478 -70.857564 -55.242816 104.720676 -13.623753 12.590770 -3.993739 -5.911312 0.035507 2.356774 1.667861 -11.660514 7.093763 53.531024 -48.628097 -95.803159 9.990983 -5.963690 9.952068 -0.819398 -57.422914 12.802486 -96.565717 88.390371 -101.217511 -10.246439 -21.519719 14.323298 0.022329 -0.031387 -0.011480 10.232964 -54.384896 -5.761970 113.389118 77.359029 111.456496 -6.630783 -23.693380 0.768848 0.031112 0.160441 0.016710
-7.997160 55.296673 -25.968211 179.684689 -17.252742 -1.493484 1.105321 15.611640 0.775137 0.114303 1.478632 0.084604 0.155096 2.509441 0.117377 1.017343 13.870983 0.800798 7.140174 16.556275 -1.291660 8.053849 -8.056245 -3.062626 0.405638 2.323981 2.494064 3.023670 -7.713328 -8.670107 -70.867777 -55.225841 104.753394 -13.620594 12.573546 -4.017381 -5.856389 0.072716 2.351635 1.592105 -11.694198 7.086088 53.569907 -48.640786 -95.816689 10.004325 -5.952589 9.949920 -0.808258 -57.418735 12.787685 -96.584875 88.394142 -101.239050 -10.211718 -21.523403 14.321354 0.028180 -0.032127 -0.017082 10.243649 -54.380038 -5.768903 113.390637 77.362402 111.457613 -6.636705 -23.688501 0.768735 0.031618 0.156549 0.018749
-7.998838 55.297830 -25.969754 179.684137 -17.268484 -1.484848 1.137665 15.602427 0.798923 0.099730 1.490694 0.073940 0.145739 2.515418 0.112008 1.025513 13.870120 0.805874 7.319712 16.658263 -1.320434 8.241707 -7.924192 -3.138339 0.457291 2.368004 2.514602 3.010179 -7.729178 -8.692019 -70.930201 -55.237791 104.774019 -13.633067 12.572890 -3.995010 -5.822492 0.087473 2.344904 1.563559 -11.719897 7.085140 53.576533 -48.641106 -95.814474 10.014017 -5.936417 9.941970 -0.797769 -57.402395 12.772260 -96.650433 88.393390 -101.302708 -10.206968 -21.524731 14.321579 -0.015113 -0.036248 -0.019818 10.251736 -54.363334 -5.775620 113.391906 77.361289 111.455619 -6.641088 -23.680957 0.770455 0.031303 0.149172 0.018222
-8.000051 55.298787 -25.970126 179.680962 -17.278805 -1.479266 1.153185 15.603412 0.806580 0.107466 1.487663 0.076756 0.146607 2.514526 0.114999 1.020997 13.876354 0.804138 7.501691 16.762091 -1.348321 8.427147 -7.791920 -3.209792 0.507856 2.412524 2.532006 2.997942 -7.739338 -8.711947 -70.987934 -55.242614 104.824495 -13.649746 12.563823 -3.969759 -5.783452 0.102109 2.336855 1.535168 -11.742994 7.088074 53.584151 -48.642138 -95.821291 10.024655 -5.917899 9.934296 -0.796543 -57.391118 12.774747 -96.600530 88.389419 -101.253200 -10.231850 -21.521589 14.325660 0.008412 -0.030923 -0.011628 10.258411 -54.353048 -5.777777 113.388531 77.357108 111.448600 -6.644671 -23.676519 0.772951 0.028316 0.144835 0.017550
-8.001021 55.299959 -25.970628 179.676735 -17.291684 -1.475839 1.181236 15.603552 0.819374 0.095037 1.494052 0.073753 0.191770 2.498282 0.131579 1.006613 13.884759 0.805931 7.662497 16.874921 -1.379551 8.607424 -7.662033 -3.275548 0.541089 2.469212 2.545356 2.978386 -7.747785 -8.731929 -71.015348 -55.230072 104.898593 -13.643457 12.527118 -4.018260 -5.780741 0.121361 2.324464 1.519676 -11.762013 7.092624 53.601126 -48.647714 -95.832385 10.034406 -5.921763 9.947085 -0.801201 -57.375969 12.778484 -96.552963 88.390648 -101.209857 -10.230543 -21.522108 14.323839 0.007422 -0.029979 -0.009777 10.262459 -54.340214 -5.776598 113.386547 77.354841 111.445352 -6.645180 -23.673221 0.773307 0.028542 0.141318 0.017086
-8.001371 55.300976 -25.970062 179.675707 -17.299245 -1.478027 1.220953 15.595931 0.841425 0.070726 1.502664 0.069199 0.219332 2.495980 0.135588 1.022138 13.885316 0.817293 7.821246 16.981977 -1.405547 8.780121 -7.535887 -3.334880 0.574127 2.524176 2.564392 2.947525 -7.750970 -8.751233 -71.081425 -55.232313 104.963874 -13.653186 12.514248 -4.026486 -5.819746 0.130133 2.319265 1.550369 -11.775956 7.092030 53.608609 -48.657242 -95.840483 10.040584 -5.915855 9.951369 -0.809869 -57.365885 12.780596 -96.473898 88.397849 -101.140900 -10.180430 -21.525801 14.317882 0.009086 -0.031802 -0.009523 10.258637 -54.336146 -5.767500 113.394730 77.357466 111.452043 -6.644548 -23.666768 0.774033 0.032530 0.136393 0.017109
-8.001159 55.302216 -25.969761 179.669320 -17.309598 -1.482760 1.247374 15.600548 0.857093 0.131252 1.490268 0.081769 0.188781 2.508672 0.131080 1.115109 13.884984 0.839993 7.907538 17.085411 -1.420233 8.945242 -7.414582 -3.389037 0.534303 2.581603 2.592163 2.905934 -7.747247 -8.768896 -71.174030 -55.243695 105.047902 -13.664929 12.504559 -4.032642 -5.886998 0.147024 2.322096 1.580016 -11.828913 7.084357 53.552970 -48.654024 -95.827951 10.043100 -5.908392 9.956924 -0.819916 -57.353251 12.790089 -96.354302 88.404261 -101.025880 -10.149709 -21.526681 14.310676 0.010640 -0.032910 -0.009584 10.249129 -54.326561 -5.745850 113.419209 77.361301 111.475630 -6.647940 -23.672842 0.769053 0.037094 0.138391 0.021527
-8.002609 55.303794 -25.970595 179.664943 -17.327311 -1.478750 1.271228 15.613454 0.864763 0.155967 1.489387 0.087232 0.197030 2.512656 0.132967 1.183628 13.892577 0.859354 8.019651 17.179052 -1.434806 9.103439 -7.299125 -3.438831 0.466341 2.602740 2.605433 2.911410 -7.702705 -8.771106 -71.263489 -55.248572 105.141794 -13.643311 12.476363 -4.059689 -5.844596 0.171088 2.329812 1.474229 -11.895328 7.068381 53.551907 -48.661855 -95.814159 10.010776 -5.926613 9.988581 -0.836318 -57.330413 12.793295 -96.309410 88.410635 -100.988613 -10.136000 -21.534700 14.303544 0.008838 -0.027770 -0.008340 10.250934 -54.306831 -5.740791 113.425247 77.365024 111.481976 -6.655575 -23.675854 0.763732 0.042883 0.139070 0.027363
-8.003503 55.305432 -25.971735 179.652184 -17.347185 -1.476032 1.324947 15.624685 0.886538 0.162646 1.493114 0.088908 0.206601 2.517888 0.135113 1.237271 13.902712 0.875665 8.147514 17.268138 -1.446750 9.254777 -7.189470 -3.483983 0.504995 2.679036 2.630959 2.832355 -7.710328 -8.781237 -71.344743 -55.248026 105.236067 -13.678602 12.470766 -4.047760 -5.815865 0.187728 2.338018 1.395625 -11.964047 7.049971 53.552047 -48.667288 -95.799189 10.022235 -5.885714 9.971281 -0.835702 -57.305087 12.800039 -96.053984 88.405661 -100.728162 -10.179126 -21.543094 14.322192 -0.013855 -0.015094 -0.020566 10.253998 -54.285246 -5.729417 113.433936 77.370764 111.494066 -6.659003 -23.679149 0.757833 0.050681 0.139311 0.029654
-8.005642 55.307501 -25.974907 179.618573 -17.379829 -1.459823 1.396254 15.648926 0.900114 0.173182 1.498277 0.093846 0.216902 2.523658 0.137354 1.294515 13.913821 0.892912 8.270029 17.352825 -1.456425 9.399590 -7.084837 -3.525363 0.552799 2.761149 2.649460 2.747672 -7.718576 -8.784108 -71.445865 -55.257216 105.331314 -13.702629 12.460138 -4.033824 -5.805720 0.202559 2.348112 1.334496 -12.036614 7.028886 53.527174 -48.665311 -95.780648 10.024828 -5.859985 9.964779 -0.806139 -57.270853 12.795056 -95.932431 88.401936 -100.604314 -10.217839 -21.545011 14.335443 0.002660 -0.010844 -0.017629 10.285550 -54.250285 -5.728072 113.445084 77.374446 111.503463 -6.655358 -23.673058 0.758723 0.045207 0.129087 0.027436
